<?xml version="1.0" standalone="no"?>
<!DOCTYPE svg PUBLIC "-//W3C//DTD SVG 20010904//EN"
 "http://www.w3.org/TR/2001/REC-SVG-20010904/DTD/svg10.dtd">
<svg version="1.0" xmlns="http://www.w3.org/2000/svg"
 width="150.000000pt" height="37.000000pt" viewBox="0 0 150.000000 37.000000"
 preserveAspectRatio="xMidYMid meet">

<g transform="translate(0.000000,37.000000) scale(0.100000,-0.100000)"
fill="#000000" stroke="none">
<path d="M210 315 c-36 -18 -117 -28 -125 -15 -9 15 -25 12 -25 -4 0 -19 27
-28 66 -20 19 3 34 3 34 -1 0 -13 -63 -100 -93 -128 -21 -20 -27 -31 -19 -39
16 -16 28 -3 90 90 37 57 65 89 84 96 15 6 28 14 28 18 0 14 -16 16 -40 3z"/>
<path d="M695 288 c-20 -23 -43 -64 -52 -89 -17 -46 -53 -79 -87 -79 -22 0
-20 17 4 32 25 16 26 30 3 21 -16 -6 -16 -5 -4 10 7 9 24 17 37 17 13 0 24 5
24 10 0 6 -11 10 -25 10 -28 0 -69 -35 -60 -50 4 -6 -1 -17 -10 -26 -12 -12
-13 -19 -4 -30 15 -18 37 -18 73 1 26 14 30 14 42 -2 12 -16 15 -17 40 -3 15
8 30 22 32 30 4 11 0 10 -16 -4 -12 -11 -28 -16 -38 -12 -15 6 -15 8 0 31 9
13 13 31 10 39 -7 17 24 73 57 102 l22 19 -13 -25 c-7 -14 -24 -40 -38 -58
-14 -18 -22 -35 -19 -38 12 -12 91 112 81 128 -10 15 -23 8 -59 -34z"/>
<path d="M1414 307 c-11 -14 -27 -39 -36 -56 -11 -20 -25 -31 -39 -31 -27 0
-89 -62 -89 -89 0 -25 31 -29 50 -6 16 19 31 20 24 1 -3 -8 0 -17 6 -21 13 -8
60 21 60 37 0 6 -8 4 -18 -5 -49 -44 -42 -10 19 96 49 85 61 124 23 74z m-74
-115 c0 -4 -16 -23 -35 -42 -41 -40 -48 -20 -8 22 27 28 43 35 43 20z"/>
<path d="M792 305 c-31 -13 -51 -40 -39 -51 3 -3 14 3 26 15 34 34 126 42 126
11 0 -16 -60 -60 -82 -60 -11 0 -11 6 3 31 12 24 12 30 2 27 -20 -7 -111 -162
-97 -167 6 -2 15 2 19 9 5 9 9 9 14 1 12 -19 81 -13 110 10 31 24 34 59 6 66
-27 7 -25 15 13 38 85 54 0 114 -101 70z m84 -127 c10 -15 -32 -48 -61 -48
-28 0 -47 22 -39 44 7 19 89 23 100 4z"/>
<path d="M510 216 c0 -17 -79 -105 -80 -88 0 7 9 31 20 52 16 31 17 40 6 40
-18 0 -39 -26 -32 -39 8 -12 -40 -68 -50 -58 -4 4 0 23 9 42 23 47 22 52 -10
50 -54 -3 -93 -38 -93 -84 0 -28 17 -35 45 -17 19 12 24 13 28 2 4 -9 20 -13
48 -11 38 2 49 9 86 50 41 45 54 75 33 75 -5 0 -10 -6 -10 -14z m-140 -24 c0
-4 -16 -23 -35 -42 -27 -26 -35 -30 -35 -17 0 10 11 29 25 42 24 25 45 32 45
17z"/>
<path d="M1234 215 c-22 -17 -38 -19 -29 -5 3 6 2 10 -4 10 -5 0 -23 -22 -40
-50 -17 -27 -35 -50 -41 -50 -14 0 -12 31 5 60 20 34 19 37 -12 35 -41 -2 -71
-21 -89 -56 -12 -23 -13 -34 -4 -44 10 -12 16 -12 40 0 25 13 29 13 34 -1 9
-25 46 -7 89 42 39 45 61 57 50 27 -9 -22 13 -8 27 17 13 25 -2 33 -26 15z
m-130 -27 c-21 -38 -74 -80 -74 -59 0 16 51 71 66 71 9 0 12 -5 8 -12z"/>
<path d="M204 193 c-8 -13 -21 -35 -30 -49 -28 -46 -5 -39 41 12 30 34 44 44
45 32 0 -26 15 -22 28 6 11 24 10 25 -30 23 -30 -1 -44 -7 -54 -24z"/>
<path d="M939 193 c-33 -35 -42 -62 -29 -78 16 -19 46 -7 81 32 35 40 35 67
-1 71 -17 2 -34 -6 -51 -25z m61 -3 c0 -12 -57 -70 -69 -70 -21 0 -11 32 19
61 27 27 50 32 50 9z"/>
</g>
</svg>
